<svg xmlns="http://www.w3.org/2000/svg" xmlns:xlink="http://www.w3.org/1999/xlink" version="1.1" id="Capa_1" x="0px" y="0px" viewBox="0 0 512 512" style="enable-background:new 0 0 512 512;" xml:space="preserve" width="512" height="512" class=""><g><path style="fill:#FFD15C" d="M505.859,167.529l-44.363-15.926h-0.001c-2.508-7.635-5.613-15.123-9.227-22.258l20.115-42.635  c1.342-2.846,0.754-6.226-1.471-8.45l-38.374-38.377c-2.224-2.224-5.604-2.813-8.45-1.471l-42.636,20.114h-0.001  c-7.129-3.612-14.618-6.716-22.26-9.227L343.268,4.935C342.205,1.975,339.398,0,336.253,0h-54.272c-3.146,0-5.952,1.975-7.015,4.935  l-15.923,44.364c-7.64,2.51-15.129,5.615-22.261,9.227l-42.634-20.113c-2.846-1.342-6.226-0.754-8.45,1.472L147.322,78.26  c-2.224,2.223-2.812,5.604-1.47,8.448l20.113,42.635c-3.621,7.157-6.724,14.646-9.224,22.26l-44.366,15.926  c-2.96,1.063-4.934,3.869-4.934,7.014v54.27c0,3.146,1.975,5.952,4.935,7.015l44.365,15.923c2.504,7.627,5.607,15.116,9.224,22.258  l-20.113,42.639c-1.342,2.844-0.753,6.225,1.47,8.449l38.377,38.375c2.223,2.223,5.603,2.813,8.45,1.472l42.634-20.113  c7.139,3.615,14.629,6.719,22.262,9.225l15.922,44.362c1.063,2.959,3.869,4.935,7.015,4.935h54.272c3.146,0,5.952-1.976,7.015-4.935  l15.922-44.362c7.629-2.506,15.119-5.608,22.261-9.225l42.637,20.116c2.844,1.339,6.226,0.753,8.45-1.472l38.374-38.378  c2.224-2.225,2.812-5.605,1.471-8.451l-20.115-42.632c3.616-7.139,6.72-14.63,9.226-22.263l44.364-15.922  c2.961-1.063,4.935-3.869,4.935-7.015v-54.271C510.794,171.398,508.819,168.592,505.859,167.529z M309.974,266.253  c-35.664,0-64.577-28.911-64.577-64.575c0-35.665,28.913-64.576,64.577-64.576c35.662,0,64.576,28.911,64.576,64.576  C374.55,237.342,345.636,266.253,309.974,266.253z" data-original="#F7AC16" class="" data-old_color="#F8CA53"></path><path style="fill:#FF7058" d="M309.116,118.97c-45.678,0-82.708,37.029-82.708,82.709c0,45.677,37.03,82.706,82.708,82.706  c45.677,0,82.709-37.029,82.709-82.706C391.825,155.999,354.793,118.97,309.116,118.97z M309.116,252.8  c-28.234,0-51.123-22.888-51.123-51.122c0-28.235,22.889-51.123,51.123-51.123c28.233,0,51.124,22.888,51.124,51.123  C360.24,229.912,337.349,252.8,309.116,252.8z" data-original="#F27019" class="" data-old_color="#A44E12"></path><path style="fill:#F8B64C" d="M197.24,201.677c0-92.416,62.163-170.309,146.955-194.158C343.42,5.359,342.13,0,336.253,0h-54.272  c-3.146,0-5.952,1.975-7.015,4.935l-15.923,44.364c-7.64,2.51-15.129,5.615-22.261,9.227l-42.634-20.113  c-2.846-1.342-6.226-0.754-8.45,1.472L147.322,78.26c-2.224,2.223-2.812,5.604-1.47,8.448l20.113,42.635  c-3.621,7.157-6.724,14.646-9.224,22.26l-44.366,15.926c-2.96,1.063-4.934,3.869-4.934,7.014v54.27c0,3.146,1.975,5.952,4.935,7.015  l44.365,15.923c2.504,7.627,5.607,15.116,9.224,22.258l-20.113,42.639c-1.342,2.844-0.753,6.225,1.47,8.449l38.377,38.375  c2.223,2.223,5.603,2.813,8.45,1.472l42.634-20.113c7.139,3.615,14.629,6.719,22.262,9.225l15.922,44.362  c1.063,2.959,3.869,4.935,7.015,4.935h54.272c5.9,0,7.188-5.417,7.942-7.519C259.403,371.986,197.24,294.094,197.24,201.677z" data-original="#F2961D" class="active-path" data-old_color="#F2961D"></path><path style="fill:#FFD15C" d="M275.847,349.438l-30.581-10.978h-0.001c-1.729-5.263-3.869-10.424-6.361-15.343l13.865-29.389  c0.925-1.962,0.52-4.292-1.013-5.825l-26.452-26.454c-1.533-1.533-3.863-1.939-5.825-1.014L190.088,274.3h-0.001  c-4.914-2.489-10.077-4.63-15.345-6.361l-10.976-30.581c-0.732-2.04-2.667-3.402-4.836-3.402h-37.411  c-2.168,0-4.103,1.362-4.836,3.402l-10.976,30.581c-5.266,1.73-10.429,3.87-15.345,6.361l-29.389-13.864  c-1.962-0.925-4.292-0.52-5.825,1.015l-26.454,26.453c-1.533,1.532-1.939,3.863-1.013,5.824l13.864,29.389  c-2.496,4.934-4.635,10.096-6.359,15.344L4.607,349.438c-2.04,0.733-3.402,2.667-3.402,4.836v37.409  c0,2.168,1.361,4.103,3.402,4.836l30.582,10.976c1.726,5.258,3.865,10.42,6.359,15.343L27.684,452.23  c-0.925,1.961-0.519,4.292,1.013,5.824l26.454,26.453c1.533,1.532,3.862,1.939,5.825,1.015l29.389-13.864  c4.921,2.493,10.084,4.632,15.346,6.36l10.975,30.58c0.733,2.04,2.667,3.402,4.836,3.402h37.411c2.168,0,4.103-1.362,4.836-3.402  l10.975-30.58c5.259-1.727,10.423-3.866,15.345-6.36l29.391,13.866c1.961,0.923,4.292,0.519,5.825-1.014l26.453-26.455  c1.533-1.533,1.939-3.863,1.013-5.825l-13.865-29.388c2.492-4.921,4.632-10.084,6.36-15.346l30.581-10.975  c2.041-0.733,3.402-2.667,3.402-4.835v-37.41C279.248,352.105,277.887,350.171,275.847,349.438z M140.227,414.334  c-22.841,0-41.357-18.516-41.357-41.357s18.516-41.357,41.357-41.357s41.357,18.516,41.357,41.357S163.068,414.334,140.227,414.334z  " data-original="#F7AC16" class="" data-old_color="#F8CA53"></path><path style="fill:#FF7058" d="M140.227,315.965c-31.487,0-57.013,25.525-57.013,57.013c0,31.486,25.526,57.011,57.013,57.011  s57.013-25.525,57.013-57.011C197.24,341.49,171.714,315.965,140.227,315.965z M140.227,401.484  c-15.744,0-28.507-12.762-28.507-28.505c0-15.745,12.763-28.507,28.507-28.507s28.507,12.762,28.507,28.507  C168.733,388.721,155.971,401.484,140.227,401.484z" data-original="#F27019" class="" data-old_color="#A44E12"></path><g>
	<path style="fill:#F0543A" d="M247.472,201.679c0-42.109,31.475-76.841,72.176-82.018c-49.865-6.341-93.24,32.495-93.24,82.018   c0,49.48,43.33,88.355,93.24,82.015C278.947,278.517,247.472,243.785,247.472,201.679z" data-original="#E26814" class="" data-old_color="#F95C42"></path>
	<path style="fill:#F0543A" d="M104.277,372.979c0-27.888,20.028-51.083,46.481-56.026c-35.2-6.578-67.545,20.394-67.545,56.026   c0,35.578,32.29,62.612,67.545,56.024C124.306,424.06,104.277,400.864,104.277,372.979z" data-original="#E26814" class="" data-old_color="#F95C42"></path>
</g><path style="fill:#F8B64C" d="M65.805,372.637c0-62.739,41.665-115.737,98.831-132.86c-0.775-2.16-1.599-5.822-5.704-5.822h-37.411  c-2.168,0-4.103,1.362-4.836,3.402l-10.976,30.581c-5.266,1.73-10.429,3.87-15.345,6.361l-29.389-13.864  c-1.962-0.925-4.292-0.52-5.825,1.015l-26.454,26.453c-1.533,1.532-1.939,3.863-1.013,5.824l13.864,29.389  c-2.496,4.934-4.635,10.096-6.359,15.344L4.607,349.438c-2.04,0.733-3.402,2.667-3.402,4.836v37.409  c0,2.168,1.361,4.103,3.402,4.836l30.582,10.976c1.726,5.258,3.865,10.42,6.359,15.343L27.684,452.23  c-0.925,1.961-0.519,4.292,1.013,5.824l26.454,26.453c1.533,1.532,3.862,1.939,5.825,1.015l29.389-13.864  c4.921,2.493,10.084,4.632,15.346,6.36l10.975,30.58c0.733,2.04,2.667,3.402,4.836,3.402h37.411c2.168,0,4.103-1.362,4.836-3.402  l1.09-3.035C107.578,488.51,65.805,435.456,65.805,372.637z" data-original="#F2961D" class="active-path" data-old_color="#F2961D"></path></g> </svg>