<?xml version="1.0"?>
<svg xmlns="http://www.w3.org/2000/svg" xmlns:xlink="http://www.w3.org/1999/xlink" version="1.1" id="Layer_1" x="0px" y="0px" viewBox="0 0 236 236" style="enable-background:new 0 0 236 236;" xml:space="preserve" width="512px" height="512px" class=""><g><g>
	<g>
		<path style="fill:#FFD15C" d="M175.5,2H13.833C6.193,2,0,8.193,0,15.833V209.5C0,223.031,10.969,234,24.5,234h187    c13.531,0,24.5-10.969,24.5-24.5V78.535c0-11.212-4.527-21.95-12.554-29.778L175.5,2z" data-original="#1C7287" class="" data-old_color="#1C7287"/>
	</g>
	<g>
		<path style="fill:#F8B64C" d="M113.5,2H13.833C6.193,2,0,8.193,0,15.833V209.5C0,223.031,10.969,234,24.5,234h89V2z" data-original="#165C6C" class="" data-old_color="#165C6C"/>
	</g>
	<g>
		<path style="fill:#E6E6E6" d="M183,234V122c0-4.142-3.357-7.5-7.5-7.5h-124c-4.143,0-7.5,3.358-7.5,7.5v112H183z" data-original="#E6E6E6" class=""/>
	</g>
	<g>
		<path style="fill:#CBCCCC;" d="M113.5,114.5h-62c-4.143,0-7.5,3.358-7.5,7.5v112h69.5V114.5z" data-original="#CBCCCC" class=""/>
	</g>
	<path style="fill:#E6E6E6" d="M36.5,2v65c0,4.142,3.358,7.5,7.5,7.5h124c4.142,0,7.5-3.358,7.5-7.5V2H36.5z" data-original="#E6E6E6" class=""/>
	<path style="fill:#CBCCCC;" d="M36.5,2v65c0,4.142,3.358,7.5,7.5,7.5h69.499L113.495,2H36.5z" data-original="#CBCCCC" class=""/>
	<rect x="124.167" y="8.5" style="fill:#FFD15C" width="29" height="51" data-original="#1C7287" class="" data-old_color="#1C7287"/>
	<g>
		<path style="fill:#FF7058" d="M183,135.5V122c0-4.142-3.357-7.5-7.5-7.5h-124c-4.143,0-7.5,3.358-7.5,7.5v13.5H183z" data-original="#F8B242" class="" data-old_color="#F8B242"/>
	</g>
	<g>
		<path style="fill:#F0543A" d="M113.5,114.5h-62c-4.143,0-7.5,3.358-7.5,7.5v13.5h69.5V114.5z" data-original="#D09838" class="active-path" data-old_color="#D09838"/>
	</g>
</g></g> </svg>
